<svg xmlns="http://www.w3.org/2000/svg" xmlns:xlink="http://www.w3.org/1999/xlink" width="1400" zoomAndPan="magnify" viewBox="0 0 1050 119.999999" height="160" preserveAspectRatio="xMidYMid meet" version="1.0"><defs><clipPath id="61b3b6ae3e"><path d="M 340.675781 0 L 655.675781 0 L 655.675781 33.773438 L 340.675781 33.773438 Z M 340.675781 0 " clip-rule="nonzero"/></clipPath><clipPath id="990e80df01"><path d="M 0 0 L 439.667969 0 L 439.667969 120 L 0 120 Z M 0 0 " clip-rule="nonzero"/></clipPath><clipPath id="f177754fb7"><path d="M 707.277344 0 L 1050 0 L 1050 120 L 707.277344 120 Z M 707.277344 0 " clip-rule="nonzero"/></clipPath></defs><rect x="-105" width="1260" fill="#ffffff" y="-12" height="143.999998" fill-opacity="1"/><rect x="-105" width="1260" fill="#729c2f" y="-12" height="143.999998" fill-opacity="1"/><g clip-path="url(#61b3b6ae3e)"><path fill="#dae586" d="M 528.855469 33.773438 L 528.855469 33.726562 C 539.441406 33.515625 549.980469 31.839844 560.109375 28.789062 C 575.894531 24.042969 590.679688 16.039062 603.273438 5.410156 C 613.339844 -3.09375 622.039062 -13.308594 628.492188 -24.867188 C 632.90625 -32.765625 636.246094 -41.292969 638.171875 -50.175781 C 639.882812 -58.046875 640.464844 -66.175781 639.773438 -74.222656 C 639.542969 -76.988281 639.148438 -79.730469 638.636719 -82.433594 L 638.636719 -82.402344 C 637.742188 -87.515625 637.710938 -92.800781 638.175781 -98.070312 C 638.808594 -105.0625 640.308594 -112 642.277344 -118.816406 C 644.496094 -126.464844 647.3125 -133.949219 650.503906 -141.289062 C 652.0625 -144.871094 653.804688 -148.371094 655.527344 -151.878906 L 650.757812 -151.878906 C 649.335938 -148.933594 647.859375 -146.011719 646.550781 -143.011719 C 643.304688 -135.539062 640.417969 -127.886719 638.136719 -120.019531 C 636.113281 -113.011719 634.550781 -105.808594 633.882812 -98.457031 C 633.394531 -92.921875 633.410156 -87.257812 634.390625 -81.664062 L 634.390625 -81.621094 C 634.878906 -79.042969 635.25 -76.449219 635.46875 -73.855469 C 636.121094 -66.257812 635.574219 -58.554688 633.953125 -51.085938 C 632.125 -42.65625 628.9375 -34.519531 624.71875 -26.964844 C 618.542969 -15.90625 610.1875 -6.078125 600.484375 2.113281 C 588.347656 12.359375 574.078125 20.085938 558.871094 24.660156 C 548.449219 27.796875 537.574219 29.4375 526.699219 29.453125 L 526.679688 29.453125 C 526.253906 29.453125 525.832031 29.453125 525.410156 29.453125 C 516.203125 29.363281 507.003906 28.097656 498.113281 25.710938 C 488.75 23.203125 479.71875 19.445312 471.273438 14.660156 C 462.074219 9.449219 453.5625 3.027344 445.851562 -4.242188 C 439.808594 -9.984375 433.332031 -15.316406 426.378906 -19.984375 C 417.199219 -26.15625 407.15625 -31.183594 396.457031 -34.335938 C 388 -36.835938 379.15625 -38.128906 370.300781 -37.957031 C 360.078125 -37.773438 349.878906 -35.632812 340.472656 -31.546875 L 340.472656 -26.769531 C 341.039062 -27.03125 341.585938 -27.328125 342.15625 -27.578125 C 351.023438 -31.433594 360.679688 -33.464844 370.359375 -33.640625 C 378.742188 -33.800781 387.148438 -32.578125 395.214844 -30.195312 C 405.417969 -27.1875 415.074219 -22.363281 423.945312 -16.402344 C 430.667969 -11.886719 436.960938 -6.710938 442.855469 -1.113281 C 450.792969 6.375 459.578125 13.011719 469.105469 18.40625 C 477.859375 23.367188 487.226562 27.269531 496.960938 29.875 C 506.203125 32.359375 515.761719 33.667969 525.332031 33.761719 L 526.640625 33.761719 Z M 524.855469 8.195312 C 526.285156 8.21875 527.710938 8.214844 529.128906 8.171875 C 579.054688 6.714844 621.226562 -36.570312 613.601562 -77.234375 C 609.222656 -100.585938 616.710938 -127.640625 627.3125 -151.886719 L 340.488281 -151.886719 L 340.488281 -54.226562 C 373.855469 -65.167969 418.015625 -59.890625 460.1875 -19.9375 C 480.765625 -0.441406 503.40625 7.789062 524.855469 8.195312 Z M 524.855469 8.195312 " fill-opacity="1" fill-rule="nonzero"/></g><g clip-path="url(#990e80df01)"><path fill="#dae586" d="M -50.082031 150.328125 L -50.082031 146.800781 C -42.257812 145.207031 -34.539062 143.113281 -27.007812 140.445312 C -13.128906 135.527344 0.140625 128.902344 12.621094 121.054688 C 19.4375 116.734375 26.25 112.394531 33.097656 108.101562 C 41.285156 102.964844 49.511719 97.867188 57.894531 93 C 57.914062 92.984375 57.949219 92.972656 57.976562 92.957031 C 57.949219 92.972656 57.914062 93 57.914062 93 L 57.660156 93.238281 L 59.515625 96.007812 L 59.695312 95.933594 C 59.695312 95.933594 59.761719 95.902344 59.792969 95.886719 L 58.066406 92.894531 C 58.085938 92.894531 58.085938 92.878906 58.09375 92.878906 L 58.113281 92.878906 C 60.609375 91.433594 63.117188 90.007812 65.648438 88.617188 C 71.371094 85.472656 77.203125 82.476562 83.230469 79.851562 C 89.226562 77.246094 95.445312 75 101.917969 73.597656 C 106.789062 72.535156 111.785156 71.992188 116.789062 72.070312 C 123.0625 72.15625 129.257812 73.191406 135.25 74.773438 C 141.949219 76.542969 148.429688 78.960938 154.738281 81.660156 C 156.851562 82.554688 158.902344 83.507812 160.945312 84.386719 C 174.570312 90.253906 189.011719 94.300781 203.746094 95.71875 C 214.234375 96.730469 224.859375 96.390625 235.195312 94.457031 C 244.167969 92.785156 252.917969 89.902344 261.070312 85.816406 C 268.628906 82.035156 275.675781 77.214844 281.9375 71.539062 C 288.394531 65.695312 294.027344 58.933594 298.707031 51.574219 C 304.375 42.671875 308.648438 32.894531 311.625 22.746094 L 311.625 22.761719 C 313.425781 16.5 315.59375 10.304688 318.367188 4.351562 C 318.382812 4.308594 318.410156 4.246094 318.433594 4.199219 C 318.449219 4.175781 318.449219 4.164062 318.457031 4.152344 C 318.457031 4.152344 318.457031 4.132812 318.472656 4.128906 L 318.496094 4.089844 C 318.496094 4.089844 318.511719 4.070312 318.511719 4.0625 C 320.714844 -0.613281 323.292969 -5.167969 326.457031 -9.34375 C 329.355469 -13.164062 332.777344 -16.703125 336.882812 -19.414062 C 339.8125 -21.355469 343.078125 -22.820312 346.527344 -23.640625 C 350.59375 -24.617188 354.796875 -24.6875 358.859375 -24.148438 C 363.746094 -23.5 368.445312 -22.011719 372.886719 -20.089844 C 376.6875 -18.433594 380.683594 -17.257812 384.761719 -16.722656 C 389.082031 -16.152344 393.503906 -16.3125 397.75 -17.242188 C 402.25 -18.21875 406.566406 -20.066406 410.453125 -22.566406 C 415.289062 -25.664062 419.484375 -29.757812 423.046875 -34.34375 C 426.710938 -39.058594 429.738281 -44.28125 432.316406 -49.726562 C 433.738281 -52.746094 435.027344 -55.835938 436.199219 -58.972656 L 439.859375 -58.972656 C 438.542969 -55.34375 437.113281 -51.757812 435.460938 -48.257812 C 432.800781 -42.640625 429.65625 -37.195312 425.800781 -32.230469 C 422.042969 -27.394531 417.574219 -23.015625 412.339844 -19.664062 C 408.125 -16.953125 403.433594 -14.941406 398.507812 -13.871094 C 393.851562 -12.851562 389.035156 -12.679688 384.328125 -13.300781 C 379.894531 -13.882812 375.582031 -15.15625 371.523438 -16.925781 C 367.300781 -18.753906 362.902344 -20.132812 358.410156 -20.730469 C 354.699219 -21.222656 350.921875 -21.144531 347.339844 -20.285156 C 344.316406 -19.566406 341.421875 -18.273438 338.804688 -16.542969 C 335.121094 -14.105469 331.953125 -10.859375 329.230469 -7.265625 C 326.222656 -3.300781 323.738281 1.082031 321.601562 5.640625 L 321.601562 5.65625 C 321.578125 5.710938 321.535156 5.796875 321.527344 5.808594 C 318.851562 11.558594 316.742188 17.582031 314.980469 23.71875 C 311.917969 34.148438 307.519531 44.222656 301.660156 53.425781 C 296.820312 61.039062 290.992188 68.039062 284.296875 74.101562 C 277.796875 79.988281 270.496094 84.984375 262.65625 88.90625 C 254.203125 93.144531 245.144531 96.125 235.863281 97.851562 C 225.179688 99.851562 214.234375 100.199219 203.453125 99.160156 C 188.308594 97.703125 173.523438 93.546875 159.613281 87.558594 C 157.511719 86.65625 155.464844 85.707031 153.421875 84.839844 C 147.210938 82.183594 140.886719 79.828125 134.40625 78.117188 C 128.621094 76.589844 122.703125 75.609375 116.777344 75.53125 C 112.058594 75.457031 107.320312 75.964844 102.695312 76.976562 C 96.519531 78.3125 90.511719 80.476562 84.652344 83.023438 C 78.761719 85.585938 73.019531 88.535156 67.355469 91.648438 C 64.839844 93.03125 62.34375 94.449219 59.855469 95.890625 L 59.839844 95.890625 C 59.839844 95.890625 59.820312 95.890625 59.816406 95.90625 C 59.761719 95.9375 59.683594 95.980469 59.675781 95.988281 C 51.351562 100.820312 43.15625 105.898438 34.980469 111.027344 C 28.144531 115.316406 21.332031 119.652344 14.507812 123.972656 C 1.835938 131.945312 -11.65625 138.6875 -25.804688 143.695312 C -33.707031 146.496094 -41.824219 148.691406 -50.058594 150.332031 Z M 57.976562 92.957031 C 57.992188 92.957031 57.992188 92.9375 57.996094 92.9375 L 58.058594 92.898438 C 58.058594 92.914062 58.058594 92.914062 58.042969 92.914062 C 58.019531 92.933594 58 92.941406 57.976562 92.957031 Z M -50.082031 129.46875 L -50.082031 -58.988281 L 417.882812 -58.988281 C 410.949219 -43.382812 398.839844 -27.34375 379.703125 -35.664062 C 345.710938 -50.445312 311.71875 -38.621094 295.460938 17.539062 C 279.207031 73.703125 224.523438 94.390625 165.40625 67.789062 C 106.289062 41.1875 81.164062 57.445312 4.3125 106.214844 C -15.191406 118.59375 -33.535156 125.699219 -50.082031 129.46875 Z M 321.390625 5.929688 C 321.390625 5.929688 321.523438 5.730469 321.539062 5.707031 C 321.550781 5.683594 321.554688 5.671875 321.5625 5.664062 L 318.4375 4.191406 C 318.4375 4.191406 318.457031 4.140625 318.417969 4.234375 C 318.398438 4.253906 318.359375 4.410156 318.359375 4.410156 L 318.296875 4.894531 L 321.386719 5.933594 Z M 321.390625 5.929688 " fill-opacity="1" fill-rule="nonzero"/></g><path fill="#dae586" d="M 205.910156 419.90625 C 185.035156 352.285156 262.367188 331.242188 269.484375 299.566406 C 283.488281 237.222656 252.015625 205.546875 302.101562 154.398438 C 344.523438 111.082031 396.382812 136.316406 447.832031 129.421875 C 510.097656 121.074219 574.542969 54.769531 635.046875 110.625 C 642.996094 117.957031 648.960938 127.28125 653.472656 137.042969 C 670.351562 173.492188 669.277344 214.347656 692.898438 248.503906 C 720.882812 288.992188 764.886719 319.359375 768.835938 372.503906 C 769.582031 382.457031 768.449219 392.335938 765.757812 401.933594 C 763.441406 410.191406 760.238281 417.910156 755.453125 425.054688 C 722.042969 474.957031 659.757812 445.933594 612.320312 457.234375 C 582.753906 464.277344 560.664062 487.128906 537.335938 504.929688 C 505.835938 528.984375 468.464844 548.203125 427.824219 547.199219 C 385.699219 546.140625 343.632812 527.421875 311.320312 501.066406 C 298.304688 490.441406 288.261719 472.3125 273.328125 464.5 C 245.742188 450.058594 211.945312 439.476562 205.910156 419.90625 Z M 205.910156 419.90625 " fill-opacity="1" fill-rule="evenodd"/><path fill="#4e5a58" d="M 209.804688 346.027344 C 207.964844 322.390625 215.984375 306.5 227.863281 294.65625 C 251.269531 271.316406 288.910156 262.941406 298.089844 243.574219 C 314.96875 207.957031 312.453125 179.914062 322.078125 154.511719 C 327.957031 139.019531 338.492188 124.5625 361.113281 109.929688 C 380.800781 97.183594 399.585938 95.007812 418.226562 97.28125 C 447.414062 100.847656 476.261719 115.109375 507.550781 117.878906 C 551.6875 121.792969 603.226562 97.707031 646.132812 107.128906 C 663.554688 110.957031 679.503906 120.445312 692.898438 139.851562 C 695.890625 144.179688 698.289062 148.886719 700.226562 153.777344 C 702.183594 158.707031 703.65625 163.828125 704.769531 168.980469 C 710.695312 196.53125 707.488281 224.246094 710.472656 251.632812 C 711.75 263.398438 714.152344 275.105469 718.828125 286.707031 C 729.886719 314.121094 747.378906 339.238281 757.894531 366.355469 C 764.757812 384.074219 768.613281 402.660156 765.554688 423.351562 C 764.835938 428.175781 763.675781 432.871094 762.125 437.441406 C 760.566406 442.011719 758.601562 446.457031 756.285156 450.746094 C 754.292969 454.445312 752.113281 457.960938 749.671875 461.273438 C 747.25 464.578125 744.558594 467.675781 741.519531 470.5625 C 728.957031 482.480469 715.480469 487.265625 701.476562 488.109375 C 667.390625 490.171875 630.378906 469.542969 596.128906 469.960938 C 583.722656 470.113281 571.9375 473.039062 560.53125 477.320312 C 543.730469 483.613281 527.742188 492.832031 511.714844 500.191406 C 493.867188 508.394531 474.867188 515.105469 455.441406 518.542969 C 436.09375 521.972656 416.328125 522.136719 396.875 517.238281 C 376.65625 512.152344 357.421875 502.796875 340.0625 490.671875 C 322.667969 478.519531 307.15625 463.578125 294.402344 447.320312 C 287.253906 438.199219 282.296875 425.890625 275.65625 415.578125 C 272.605469 410.820312 269.195312 406.492188 265.109375 403.027344 C 250.039062 390.234375 232.175781 378.429688 220.785156 366.277344 C 214.617188 359.691406 210.355469 353.046875 209.804688 346.027344 Z M 205.941406 346.328125 C 206.550781 354.125 211.101562 361.609375 217.96875 368.929688 C 229.441406 381.171875 247.417969 393.089844 262.601562 405.980469 C 266.398438 409.203125 269.554688 413.253906 272.402344 417.679688 C 279.101562 428.078125 284.136719 440.503906 291.351562 449.703125 C 304.335938 466.261719 320.132812 481.472656 337.84375 493.851562 C 355.59375 506.246094 375.261719 515.792969 395.925781 520.992188 C 415.921875 526.027344 436.238281 525.875 456.121094 522.359375 C 475.863281 518.863281 495.183594 512.046875 513.332031 503.71875 C 529.269531 496.398438 545.171875 487.207031 561.886719 480.941406 C 572.886719 476.824219 584.226562 473.980469 596.175781 473.832031 C 630.484375 473.417969 667.5625 494.042969 701.71875 491.972656 C 716.5625 491.082031 730.867188 486.007812 744.191406 473.367188 C 747.386719 470.328125 750.234375 467.054688 752.789062 463.570312 C 755.347656 460.113281 757.613281 456.441406 759.695312 452.585938 C 762.117188 448.105469 764.160156 443.464844 765.785156 438.691406 C 767.421875 433.898438 768.632812 428.96875 769.378906 423.914062 C 772.554688 402.511719 768.605469 383.28125 761.496094 364.949219 C 750.980469 337.816406 733.480469 312.6875 722.421875 285.253906 C 717.878906 273.992188 715.558594 262.632812 714.316406 251.214844 C 711.335938 223.695312 714.511719 195.84375 708.554688 168.167969 C 707.402344 162.8125 705.863281 157.476562 703.828125 152.355469 C 701.785156 147.183594 699.238281 142.222656 696.082031 137.652344 C 682.03125 117.277344 665.257812 107.363281 646.96875 103.34375 C 603.902344 93.894531 552.183594 117.945312 507.890625 114.027344 C 471.109375 110.773438 437.691406 91.675781 403.160156 92.652344 C 388.742188 93.058594 374.128906 96.894531 359.011719 106.675781 C 335.460938 121.90625 324.566406 137.015625 318.457031 153.148438 C 308.871094 178.453125 311.417969 206.417969 294.59375 241.917969 C 285.550781 260.996094 248.191406 268.90625 225.125 291.90625 C 212.535156 304.457031 203.996094 321.285156 205.941406 346.328125 Z M 205.941406 346.328125 " fill-opacity="1" fill-rule="evenodd"/><path fill="#dae586" d="M 749.289062 -2.339844 L 1228.011719 -2.339844 L 1228.011719 474.078125 C 1194.257812 461.738281 1166.660156 433.605469 1154.964844 399.625 C 1146.648438 375.460938 1146.167969 349.234375 1148.925781 323.832031 C 1151.6875 298.429688 1157.574219 273.480469 1161.726562 248.269531 C 1163.105469 239.910156 1164.292969 231.488281 1164.277344 223.015625 C 1164.261719 214.542969 1163 205.984375 1159.648438 198.203125 C 1156.292969 190.425781 1150.738281 183.453125 1143.382812 179.253906 C 1139.703125 177.152344 1135.609375 175.757812 1131.398438 175.308594 C 1127.1875 174.855469 1122.863281 175.351562 1118.90625 176.867188 C 1113.390625 178.980469 1108.746094 182.988281 1105.128906 187.65625 C 1101.511719 192.324219 1098.847656 197.652344 1096.433594 203.042969 C 1094.019531 208.433594 1091.832031 213.933594 1089.046875 219.144531 C 1086.265625 224.355469 1082.84375 229.308594 1078.339844 233.125 C 1073.535156 237.195312 1067.570312 239.855469 1061.351562 240.835938 C 1055.132812 241.816406 1048.671875 241.125 1042.753906 238.972656 C 1030.921875 234.664062 1021.601562 224.46875 1017.484375 212.570312 C 1012.648438 198.585938 1014.675781 183.3125 1014.570312 168.519531 C 1014.519531 161.117188 1013.90625 153.648438 1011.644531 146.601562 C 1009.382812 139.558594 1005.367188 132.921875 999.457031 128.472656 C 994.066406 124.414062 987.359375 122.355469 980.636719 121.777344 C 973.914062 121.199219 967.148438 122.027344 960.519531 123.289062 C 947.265625 125.8125 933.96875 130.097656 920.574219 128.472656 C 911.421875 127.363281 902.730469 123.484375 895.234375 118.113281 C 887.742188 112.738281 881.390625 105.902344 875.828125 98.546875 C 864.703125 83.835938 856.628906 67.011719 845.535156 52.277344 C 822.71875 21.964844 787.011719 1.703125 749.289062 -2.339844 Z M 749.289062 -2.339844 " fill-opacity="1" fill-rule="nonzero"/><g clip-path="url(#f177754fb7)"><path fill="#4e5a58" d="M 708.882812 -3.777344 C 708.488281 -3.820312 708.132812 -3.71875 707.820312 -3.472656 C 707.671875 -3.351562 707.546875 -3.207031 707.457031 -3.039062 C 707.363281 -2.871094 707.304688 -2.695312 707.285156 -2.503906 C 707.261719 -2.3125 707.277344 -2.125 707.332031 -1.941406 C 707.382812 -1.757812 707.46875 -1.589844 707.589844 -1.441406 C 723.316406 18.316406 745.039062 33.203125 769.140625 40.734375 C 796.589844 49.3125 825.734375 48.335938 853.789062 51.867188 C 867.816406 53.632812 881.75 56.566406 894.59375 62.179688 C 907.429688 67.792969 919.199219 76.230469 927.289062 87.527344 C 937.484375 101.773438 941.347656 119.707031 947.480469 136.683594 C 950.550781 145.175781 954.285156 153.582031 959.679688 160.988281 C 965.085938 168.402344 972.246094 174.78125 980.890625 178.210938 C 988.921875 181.398438 997.75 181.851562 1006.179688 180.753906 C 1014.601562 179.660156 1022.683594 177.070312 1030.542969 174.25 C 1038.40625 171.429688 1046.121094 168.367188 1054.042969 166.203125 C 1061.960938 164.039062 1070.160156 162.789062 1078.1875 163.621094 C 1090.839844 164.9375 1102.765625 171.550781 1111.40625 180.992188 C 1120.058594 190.445312 1125.570312 202.613281 1128.03125 215.269531 C 1132.960938 240.601562 1126.011719 266.933594 1116.433594 291.246094 C 1108.855469 310.488281 1099.460938 329.535156 1096.261719 350.347656 C 1094.65625 360.757812 1094.671875 371.550781 1097.324219 381.839844 C 1099.980469 392.132812 1105.371094 401.882812 1113.445312 408.933594 C 1119.359375 414.097656 1126.539062 417.671875 1134.078125 419.667969 C 1141.613281 421.667969 1149.488281 422.113281 1157.203125 421.390625 C 1172.621094 419.945312 1187.15625 413.941406 1200.710938 406.871094 C 1210.429688 401.804688 1219.828125 396.125 1228.835938 389.875 C 1228.992188 389.765625 1229.125 389.632812 1229.226562 389.46875 C 1229.332031 389.308594 1229.398438 389.132812 1229.433594 388.945312 C 1229.46875 388.757812 1229.464844 388.570312 1229.425781 388.382812 C 1229.382812 388.195312 1229.308594 388.023438 1229.199219 387.863281 C 1229.089844 387.707031 1228.957031 387.578125 1228.792969 387.472656 C 1228.632812 387.367188 1228.457031 387.300781 1228.269531 387.265625 C 1228.082031 387.230469 1227.894531 387.234375 1227.707031 387.273438 C 1227.519531 387.316406 1227.347656 387.390625 1227.1875 387.5 C 1218.28125 393.679688 1208.984375 399.296875 1199.371094 404.308594 C 1185.972656 411.296875 1171.777344 417.121094 1156.933594 418.507812 C 1149.511719 419.207031 1141.972656 418.773438 1134.820312 416.875 C 1127.664062 414.980469 1120.882812 411.589844 1115.347656 406.757812 C 1107.785156 400.15625 1102.652344 390.921875 1100.125 381.117188 C 1097.59375 371.300781 1097.5625 360.898438 1099.117188 350.785156 C 1102.230469 330.558594 1111.484375 311.695312 1119.125 292.304688 C 1128.785156 267.777344 1135.96875 240.914062 1130.871094 214.71875 C 1128.320312 201.609375 1122.613281 188.949219 1113.539062 179.039062 C 1104.457031 169.121094 1091.941406 162.144531 1078.488281 160.746094 C 1069.964844 159.859375 1061.414062 161.195312 1053.28125 163.414062 C 1045.152344 165.632812 1037.367188 168.730469 1029.570312 171.527344 C 1021.769531 174.324219 1013.882812 176.835938 1005.808594 177.890625 C 997.738281 178.941406 989.398438 178.476562 981.957031 175.523438 C 973.949219 172.347656 967.167969 166.351562 962.015625 159.285156 C 956.859375 152.210938 953.21875 144.0625 950.199219 135.703125 C 944.15625 118.976562 940.300781 100.734375 929.636719 85.84375 C 921.175781 74.019531 908.96875 65.308594 895.75 59.53125 C 882.542969 53.757812 868.335938 50.785156 854.152344 49 C 825.789062 45.429688 796.832031 46.359375 770.003906 37.976562 C 746.46875 30.617188 725.210938 16.054688 709.851562 -3.238281 C 709.605469 -3.550781 709.28125 -3.730469 708.882812 -3.777344 Z M 708.882812 -3.777344 " fill-opacity="1" fill-rule="nonzero"/></g></svg>